Coordinates
version=1
nRows=9
nColumns=24
inDegrees=yes

Units are S.I. units (second, meters, Newtons, ...)
Angles are in degrees.

endheader
time	pelvis_tilt	pelvis_list	pelvis_rotation	pelvis_tx	pelvis_ty	pelvis_tz	hip_flexion_r	hip_adduction_r	hip_rotation_r	knee_angle_r	ankle_angle_r	subtalar_angle_r	mtp_angle_r	hip_flexion_l	hip_adduction_l	hip_rotation_l	knee_angle_l	ankle_angle_l	subtalar_angle_l	mtp_angle_l	lumbar_extension	lumbar_bending	lumbar_rotation
      1.15000000	     -1.00980479	      4.56177254	     -8.13112673	      0.01841346	      0.98989176	      0.30751862	    -15.33020277	     -3.66126366	      4.52937102	    -12.63454166	     14.12033475	     -2.79375943	      0.54377381	     23.25448495	      3.81017465	    -10.95291912	      0.30642496	      0.69434006	    -10.81830522	      3.14053723	     -2.09816259	     -4.97497839	     14.43892375
      1.15416667	     -0.98546143	      4.72247426	     -8.20134806	      0.02479622	      0.98960593	      0.30730892	    -15.36379101	     -3.90709093	      4.50464395	    -13.30099838	     13.83754201	     -2.82579871	      5.22593392	     23.26704595	      4.01583160	    -10.62450659	     -0.29244705	      0.36118698	    -11.38594989	      4.19857705	     -2.02828813	     -5.19650722	     14.47971910
      1.15833333	     -0.93259664	      4.92975696	     -8.29487600	      0.03126971	      0.98939057	      0.30710769	    -15.39134723	     -4.22228881	      4.40039291	    -14.03251383	     13.63034076	     -2.55635653	      5.27220869	     23.25185794	      4.26197476	    -10.43068618	     -0.91124285	      0.03706615	    -11.74275717	      4.21678090	     -1.96732533	     -5.48606471	     14.66659247
      1.16250000	     -0.90437061	      5.09995370	     -8.37397929	      0.03767175	      0.98917396	      0.30685147	    -15.35534814	     -4.48810943	      4.32044802	    -14.84022120	     13.43128164	     -2.33788276	      5.38673618	     23.26127157	      4.47933929	    -10.11770770	     -1.53377161	     -0.40213875	    -12.31267524	      4.25326736	     -1.90736704	     -5.68818595	     14.80541748
      1.16666667	     -0.85368824	      5.29524859	     -8.45424338	      0.04413671	      0.98902306	      0.30660096	    -15.32812626	     -4.78378684	      4.23071181	    -15.66917079	     13.16814269	     -2.14714539	      5.55508506	     23.23546055	      4.72675537	     -9.82840234	     -2.14131745	     -0.86513643	    -12.84165716	      4.29868947	     -1.85042961	     -5.94466191	     14.92229855
      1.17083333	     -0.80462315	      5.49616429	     -8.53141165	      0.05062223	      0.98890619	      0.30633719	    -15.27449100	     -5.08434924	      4.14162233	    -16.53988753	     12.86484644	     -1.96341197	      5.77396497	     23.21247265	      4.97977458	     -9.55992661	     -2.75810226	     -1.34012714	    -13.33922300	      4.35078670	     -1.78863612	     -6.20658737	     15.02901181
      1.17500000	     -0.76301974	      5.69876621	     -8.60241938	      0.05711604	      0.98881422	      0.30605188	    -15.18448722	     -5.38451558	      4.04876912	    -17.46012265	     12.52665611	     -1.78048889	      6.06437339	     23.19890720	      5.23506408	     -9.30773517	     -3.38286283	     -1.82840778	    -13.82777633	      4.41257162	     -1.71509120	     -6.46360390	     15.13164419
      1.17916667	     -0.70250732	      5.90792541	     -8.64495010	      0.06363134	      0.98877953	      0.30574544	    -15.10887487	     -5.68261369	      3.95157061	    -18.38441491	     12.06330720	     -1.78458632	     10.34815047	     23.16646786	      5.50881770	     -9.04549510	     -4.01414869	     -2.31971296	    -14.31950907	      5.26109627	     -1.65969258	     -6.74949870	     15.12956754
      1.18333333	     -0.63663222	      6.11915804	     -8.72966107	      0.07013538	      0.98879817	      0.30543958	    -14.97757546	     -6.00612454	      3.84285333	    -19.40713094	     11.64349481	     -1.50265045	     10.42413759	     23.13781295	      5.76216359	     -8.94321449	     -4.67142655	     -2.76703543	    -14.60849563	      5.27412413	     -1.61435424	     -7.01462870	     15.28799881
